<svg version="1.1" width="307.2" height="427.6" viewBox="0 0 307.2 427.6" xmlns="http://www.w3.org/2000/svg" xmlns:xlink="http://www.w3.org/1999/xlink" overflow="hidden"><defs></defs><g><path d=" M 0.3 107.1 C 0.3 107.1 0.4 107.1 0.3 107.1 C 0.5 107.5 0.7 107.7 1 108 C 1.3 108.3 1.7 108.6 2.2 108.7 L 32.8 118.1 C 27.5 126.5 21.4 137.4 14.6 151.9 C 14.2 152.7 14.2 153.6 14.5 154.4 C 14.8 155.2 15.4 155.9 16.2 156.2 L 25.3 160.5 L 4.5 204.4 C 3.7 206 4.4 207.9 6 208.7 C 6.4 208.9 6.9 209 7.4 209 C 8.6 209 9.8 208.3 10.3 207.2 L 50.1 123.4 L 56.3 125.3 C 43.3 143.3 35.5 165.3 35.5 189.1 C 35.5 249.4 84.5 298.4 144.8 298.4 C 205.1 298.4 254.1 249.4 254.1 189.1 C 254.1 128.8 205.1 79.8 144.8 79.8 C 133.6 79.8 122.9 81.5 112.7 84.6 L 125.4 43.2 C 125.5 42.8 125.5 42.4 125.5 42 C 125.5 41.9 125.4 41.7 125.4 41.6 C 125.4 41.4 125.3 41.1 125.2 40.9 C 125.1 40.8 125.1 40.6 125 40.5 C 124.9 40.3 124.7 40.1 124.6 40 C 124.5 39.9 124.4 39.8 124.2 39.7 C 124.1 39.6 124 39.5 123.9 39.4 C 123.4 39.1 75.7 11.3 38 2.84217e-14 C 36.3 -0.5 34.5 0.4 34 2.1 L 31 11.1 C 29.6 11.1 28.4 12 27.9 13.3 L 0.1 104.7 C 0 104.9 0.1 105.2 0 105.4 C 0 105.6 -0.1 105.8 -0.1 105.9 C -0.1 106.2 0 106.4 0.1 106.7 C 0.3 106.8 0.3 107 0.3 107.1 Z M 42.1 189.1 C 42.1 165.9 49.9 144.5 63 127.3 C 63.7 126.4 64.3 125.4 65.1 124.5 C 65.8 123.6 66.6 122.7 67.4 121.8 C 77.1 110.6 89.2 101.6 102.8 95.4 L 102.8 95.4 C 104.1 94.8 105.4 94.2 106.7 93.7 C 108 93.2 109.2 92.8 110.5 92.3 C 121.3 88.4 132.9 86.2 145 86.2 C 201.7 86.2 247.8 132.3 247.8 189 C 247.8 245.7 201.7 291.8 145 291.8 C 88.3 291.8 42.1 245.8 42.1 189.1 Z M 43.9 121.5 L 28.1 154.7 L 21.9 151.8 C 28.6 138 34.4 127.8 39.3 120.1 C 39.9 119.1 40.6 118.2 41.2 117.3 C 41.9 116.3 42.5 115.4 43.1 114.5 C 43.1 114.5 43.1 114.5 43.1 114.5 C 47 109 50.2 105.3 52.8 102.9 L 46.8 115.6 L 46.8 115.6 L 45.4 118.6 L 43.9 121.5 Z M 60.5 119.8 L 53 117.5 L 63.1 96.2 C 63.5 95.3 63.5 94.2 63 93.3 C 62.5 92.4 61.6 91.8 60.6 91.6 C 58.7 91.3 50.8 91.9 36.6 112.5 L 7.3 103.5 L 7.2 103.5 L 33.4 18 C 34.1 18.1 34.8 18.3 35.5 18.4 C 57.7 22.3 106 39.9 118.3 44.4 L 105.1 87.5 C 87.6 94.3 72.3 105.5 60.5 119.8 Z M 39.3 7.3 C 53 11.6 67.8 18.1 81.1 24.4 C 65.5 19.2 48.9 14.2 37.7 12.1 L 39.3 7.3 Z" fill="#25263D"/><path d=" M 106.6 49.3 C 104.9 48.8 103.1 49.7 102.6 51.4 L 100 59.7 C 99.5 61.4 100.4 63.2 102.1 63.7 C 102.4 63.8 102.7 63.8 103 63.8 C 104.4 63.8 105.7 62.9 106.1 61.5 L 108.7 53.2 C 109.2 51.6 108.3 49.8 106.6 49.3 Z" fill="#25263D"/><path d=" M 92.3 44.9 C 90.6 44.4 88.8 45.3 88.3 47 L 85.7 55.3 C 85.2 57 86.1 58.8 87.8 59.3 C 88.1 59.4 88.4 59.4 88.7 59.4 C 90.1 59.4 91.4 58.5 91.8 57.1 L 94.4 48.8 C 95 47.3 94 45.5 92.3 44.9 Z" fill="#25263D"/><path d=" M 78 40.6 C 76.3 40.1 74.5 41 74 42.7 L 71.4 51 C 70.9 52.7 71.8 54.5 73.5 55 C 73.8 55.1 74.1 55.1 74.4 55.1 C 75.8 55.1 77.1 54.2 77.5 52.8 L 80 44.5 C 80.7 42.9 79.7 41.1 78 40.6 Z" fill="#25263D"/><path d=" M 63.7 36.2 C 62 35.7 60.2 36.6 59.7 38.3 L 57.1 46.6 C 56.6 48.3 57.5 50.1 59.2 50.6 C 59.5 50.7 59.8 50.7 60.1 50.7 C 61.5 50.7 62.8 49.8 63.2 48.4 L 65.8 40.1 C 66.4 38.5 65.4 36.7 63.7 36.2 Z" fill="#25263D"/><path d=" M 49.5 31.8 C 47.8 31.3 46 32.2 45.5 33.9 L 42.9 42.2 C 42.4 43.9 43.3 45.7 45 46.2 C 45.3 46.3 45.6 46.3 45.9 46.3 C 47.3 46.3 48.6 45.4 49 44 L 51.6 35.7 C 52.1 34.1 51.2 32.3 49.5 31.8 Z" fill="#25263D"/><path d=" M 43.1 52 L 34.8 49.4 C 33.1 48.9 31.3 49.8 30.8 51.5 C 30.3 53.2 31.2 55 32.9 55.5 L 41.2 58.1 C 41.5 58.2 41.8 58.2 42.1 58.2 C 43.5 58.2 44.8 57.3 45.2 55.9 C 45.7 54.3 44.8 52.5 43.1 52 Z" fill="#25263D"/><path d=" M 38.7 66.2 L 30.4 63.6 C 28.7 63.1 26.9 64 26.4 65.7 C 25.9 67.4 26.8 69.2 28.5 69.7 L 36.8 72.3 C 37.1 72.4 37.4 72.4 37.7 72.4 C 39.1 72.4 40.4 71.5 40.8 70.1 C 41.4 68.6 40.4 66.8 38.7 66.2 Z" fill="#25263D"/><path d=" M 34.3 80.5 L 26 78 C 24.3 77.5 22.5 78.4 22 80.1 C 21.5 81.8 22.4 83.6 24.1 84.1 L 32.4 86.7 C 32.7 86.8 33 86.8 33.3 86.8 C 34.7 86.8 36 85.9 36.4 84.5 C 37 82.9 36 81 34.3 80.5 Z" fill="#25263D"/><path d=" M 30 94.8 L 21.7 92.2 C 20 91.7 18.2 92.6 17.7 94.3 C 17.2 96 18.1 97.8 19.8 98.3 L 28.1 100.9 C 28.4 101 28.7 101 29 101 C 30.4 101 31.7 100.1 32.1 98.7 C 32.6 97.1 31.7 95.3 30 94.8 Z" fill="#25263D"/><path d=" M 219.5 162.4 L 227.5 157.4 C 230 157 232.4 155.6 233.8 153.3 C 233.8 153.2 233.9 153.2 233.9 153.1 C 234 153 234 152.9 234.1 152.8 C 236.4 148.5 235.1 143.2 230.9 140.6 L 230.9 140.6 L 164 98.7 C 159.8 96.1 154.2 97.3 151.4 101.4 C 151.4 101.4 151.4 101.4 151.4 101.4 C 151.4 101.5 151.3 101.5 151.2 101.6 C 149.7 104 149.5 106.7 150.2 109.2 L 150.1 110 C 148.3 109.9 146.5 109.7 144.7 109.7 C 128.5 109.7 113.4 114.6 100.9 123 C 99.4 124 98 125.1 96.5 126.2 C 94.1 128 91.8 130 89.6 132.1 C 88.7 132.9 87.9 133.8 87.1 134.7 C 73.7 148.9 65.4 168 65.4 189.1 C 65.4 204.3 69.7 218.4 77.1 230.4 C 77.2 230.8 77.3 231.2 77.5 231.7 C 77.8 232.4 78.3 232.9 78.9 233.3 C 93.2 254.5 117.4 268.5 144.8 268.5 C 188.6 268.5 224.2 232.9 224.2 189.1 C 224.3 179.7 222.6 170.8 219.5 162.4 Z M 85.9 231.8 C 86.8 231.3 87.7 230.7 88.8 229.9 C 93.1 236.8 100.2 243.1 110.3 244 C 111.5 246.8 113.3 249.5 115.9 252.1 C 116.5 252.7 117.4 253.1 118.2 253.1 C 118.9 253.1 119.7 252.9 120.3 252.4 C 120.3 252.4 120.6 252.2 120.9 251.8 C 121.5 252.3 122.2 252.6 123 252.6 C 123.1 252.6 123.2 252.6 123.3 252.6 C 123.5 252.6 139.6 250.5 144.8 231.5 C 146.2 232.1 147.6 232.6 149.2 233 C 149.5 233.1 149.7 233.1 150 233.1 C 151.4 233.1 152.6 232.3 153.1 230.9 C 153.2 230.7 157 219 148 207.5 L 213.9 166.1 C 216.4 173.4 217.8 181.2 217.8 189.3 C 217.8 229.5 185.1 262.2 144.9 262.2 C 120.6 262 99.1 250.1 85.9 231.8 Z M 94.3 136.8 C 95.4 135.7 96.6 134.6 97.8 133.6 C 110.5 122.8 126.9 116.3 144.9 116.3 C 146.5 116.3 148 116.4 149.6 116.5 L 140.7 200.3 C 138.4 198.6 135.7 197 132.5 195.5 C 131.9 195.2 131.3 195.2 130.7 195.3 C 131.2 189 129.6 181 123.4 171.6 C 122.8 170.7 121.8 170.2 120.8 170.1 C 119.7 170.1 118.7 170.6 118.1 171.4 C 117.8 171.8 117.5 172.2 117.2 172.6 C 116.1 168.5 114.1 164 110.9 159.1 C 110.3 158.2 109.3 157.7 108.3 157.6 C 107.3 157.6 106.2 158.1 105.6 158.9 C 103.8 161.3 101.9 164.6 100.4 168.5 C 99.8 167.9 99.1 167.5 98.3 167.5 C 97.2 167.5 96.2 168 95.6 168.8 C 91.2 174.7 85.9 186.6 89.1 198 C 84.2 201.9 79 207.9 76.9 215.2 C 73.7 207.1 71.9 198.2 71.9 189 C 72 168.6 80.6 150 94.3 136.8 Z M 157.4 104.5 C 157.9 104 158.5 103.7 159.2 103.7 C 159.7 103.7 160.2 103.8 160.7 104.1 L 227.6 145.9 C 228.7 146.6 229.1 147.8 228.8 148.9 C 228.8 149 228.7 149.2 228.7 149.3 C 228.6 149.4 228.6 149.6 228.6 149.7 C 228 150.7 226.8 151.1 225.7 150.9 C 225.4 150.8 225.1 150.7 224.8 150.6 L 207 139.5 L 196.3 132.8 L 173 118.3 L 162.4 111.7 L 157.9 108.9 C 157.6 108.7 157.4 108.5 157.2 108.2 C 156.5 107.3 156.4 106.1 157 105.1 C 157.1 105 157.2 104.9 157.3 104.8 C 157.2 104.7 157.3 104.6 157.4 104.5 Z M 127.9 205.3 C 128.4 210.2 129.8 215.7 132.8 220.7 C 130.9 222.1 129 223.6 127.3 225.5 C 126.5 222.5 125.3 219.2 123.5 215.8 C 124 214.2 124.3 212.5 124.6 210.7 C 125.5 209.4 126.8 207.6 127.9 205.3 Z M 151.4 174 C 152.3 172.6 153.8 171.8 155.3 171.8 C 156.1 171.8 157 172 157.7 172.5 C 158.7 173.2 159.5 174.2 159.8 175.4 C 160.1 176.6 159.9 177.8 159.2 178.9 C 158.5 179.9 157.5 180.7 156.3 181 C 155.1 181.3 153.8 181.1 152.8 180.4 C 151.8 179.7 151 178.7 150.7 177.5 C 150.6 176.3 150.8 175 151.4 174 Z M 119.3 243.1 C 118.9 243.7 118.6 244.3 118.2 244.8 C 117.7 244.2 117.5 243.5 117.1 242.9 C 114.6 238.5 114.2 234 114.7 229.9 C 114.7 229.6 114.8 229.4 114.8 229.1 C 116.5 227.7 118.2 225.8 119.8 223.5 C 121.2 227.2 121.7 230.4 121.7 233.3 C 120.4 236.2 119.4 239.5 119.3 243.1 Z M 91.9 222 C 91.8 221.8 91.7 221.5 91.6 221.3 C 91.8 221.4 92 221.4 92.2 221.5 C 93.3 221.8 94.4 222.1 95.4 222.4 C 98.2 223.3 100.5 224.5 102.4 225.8 C 102.8 227.6 103.3 229.5 104.1 231.5 C 104.6 232.7 105.8 233.5 107.1 233.5 C 107.4 233.5 107.8 233.4 108.1 233.3 C 108.1 233.3 108.1 233.3 108.1 233.3 C 108.1 234.6 108.2 235.8 108.4 237.1 C 101 235.5 96.3 230.1 93.5 225.2 C 92.8 224 92.3 223 91.9 222 Z M 98.2 177.1 C 98.2 177.2 98.3 177.3 98.3 177.3 C 97.7 182.8 98.4 188.6 101.6 194.1 C 101.2 196.7 100.4 198.8 99.5 200.5 C 99.4 199.3 99.3 198.2 99.1 196.9 C 98.9 195.9 98.3 195 97.3 194.5 C 96.5 194.1 95.7 194.1 94.9 194.4 C 93.8 187.7 96.1 181.3 98.2 177.1 Z M 105 176.4 C 105.7 172.8 107 169.6 108.2 167.2 C 114.8 180.1 111.1 188.6 108.3 192.5 C 108.3 192.5 108.3 192.5 108.3 192.5 C 104.4 187.2 104.1 181.5 105 176.4 Z M 111.3 199.5 C 106.8 204.2 102.8 210.5 102 218 C 100.8 217.4 99.5 216.9 98.1 216.4 C 98.7 214.6 99.1 212.6 99.4 210.4 C 99.7 210.3 100.1 210.1 100.3 209.9 C 100.4 209.8 104.3 206.4 106.6 200.2 C 107.1 200.5 107.6 200.7 108.2 200.7 C 108.9 200.7 109.7 200.5 110.3 200 C 110.3 200 110.7 199.7 111.2 199.1 C 111.2 199.2 111.2 199.4 111.3 199.5 Z M 110.7 224.3 C 110.1 224.8 109.6 225.2 109.1 225.5 C 109.1 225.5 109 225.6 109 225.6 C 108.7 224.4 108.6 223.3 108.5 222.2 C 108 215.8 110.8 210.4 114.1 206.4 C 114.8 205.5 115.6 204.6 116.4 203.9 C 117.1 203.2 117.7 202.6 118.3 202.1 C 118.5 203.9 118.5 205.6 118.5 207.2 C 118.5 208.2 118.3 209.1 118.2 210.1 C 118.1 210.6 118.1 211.2 118 211.7 C 117.8 213 117.5 214.2 117.1 215.3 C 116.3 217.5 115.3 219.4 114.2 220.9 C 112.9 222.2 111.8 223.4 110.7 224.3 Z M 123.9 197.3 C 123.8 196.7 123.7 196.1 123.6 195.5 C 123.4 194.5 122.7 193.6 121.7 193.2 C 120.7 192.8 119.6 192.9 118.7 193.4 C 118.1 193.7 117.6 194.1 117 194.6 C 116.7 188.8 118.8 183.3 120.6 179.7 C 124.4 186.9 124.7 192.8 123.9 197.3 Z M 125.8 244.4 C 125.8 240.7 126.7 237.6 128.2 234.8 C 130.4 230.8 133.7 227.8 136.8 225.7 C 137.5 226.4 138.2 227.1 139 227.7 C 136.5 239.1 129.8 243.5 125.7 245 C 125.7 244.8 125.8 244.6 125.8 244.4 Z M 138.3 217.3 C 135.6 212.7 134.6 207.5 134.3 203.8 C 146.7 211.4 147.9 220.7 147.5 225.4 C 147 225.2 146.6 224.9 146.1 224.6 C 145 224 143.9 223.4 143 222.6 C 142 221.8 141 220.9 140.2 219.9 C 139.5 219.1 138.9 218.2 138.3 217.3 Z M 91.8 204.3 C 92.3 203.9 92.8 203.4 93.3 203.1 C 93.4 204.3 93.3 205.3 93.2 206.4 C 93.1 209.6 92.6 212.4 91.8 214.7 C 90.3 214.4 88.8 214.1 87.1 213.9 C 86.1 213.8 85 214.2 84.3 215 C 83.6 215.8 83.3 216.9 83.6 217.9 C 84 219.7 84.7 221.8 85.7 224.1 C 84.7 225 83.7 225.7 82.8 226.2 C 80.8 216.2 86.8 208.6 91.8 204.3 Z M 184.2 171.8 C 183.2 171.1 182.4 170.1 182.1 168.9 C 181.8 167.7 182 166.5 182.7 165.4 C 183.4 164.4 184.4 163.6 185.6 163.3 C 185.9 163.2 186.3 163.2 186.6 163.2 C 187.5 163.2 188.3 163.4 189 163.9 C 191.2 165.3 191.8 168.1 190.5 170.3 C 189.2 172.5 186.3 173.1 184.2 171.8 Z M 214.3 158 L 211.5 159.7 L 197.6 168.4 C 197.8 164.5 196 160.6 192.4 158.4 C 187.2 155.1 180.3 156.7 177.1 161.9 C 175.5 164.4 175 167.4 175.7 170.3 C 176.4 173.2 178.1 175.6 180.6 177.2 C 181.1 177.5 181.7 177.7 182.3 177.9 L 147 200 L 148.6 185.1 C 148.8 185.3 149.1 185.5 149.3 185.7 C 151.1 186.8 153.2 187.4 155.2 187.4 C 158.9 187.4 162.5 185.6 164.6 182.2 C 166.2 179.7 166.7 176.7 166 173.8 C 165.3 170.9 163.6 168.5 161.1 166.9 C 157.8 164.9 153.9 164.7 150.6 166.2 L 155.8 117 L 156 115.4 L 159.4 117.5 L 202.2 144.2 L 209.2 148.6 L 215 152.2 L 219 154.7 L 216.9 156 L 214.3 158 Z" fill="#25263D"/><path d=" M 248.4 95.1 C 250.9 100.3 255.2 104.3 260.3 106.3 C 262.7 107.3 265.3 107.7 267.7 107.7 C 269.5 107.7 271.2 107.4 273 106.9 L 301 164.5 C 301.6 165.7 302.7 166.3 303.9 166.3 C 304.4 166.3 304.9 166.2 305.3 166 C 306.9 165.2 307.6 163.3 306.8 161.7 L 278.8 104.1 C 282.3 101.6 284.9 98 286.1 93.7 C 287.7 88.4 287.2 82.6 284.6 77.4 L 276 59.5 C 275.2 57.9 273.3 57.2 271.7 58 C 270.1 58.8 269.4 60.7 270.2 62.3 L 278.9 80.1 C 280.7 83.8 281.1 87.9 280 91.7 C 279.2 94.2 277.8 96.4 276 98 L 260.8 67 C 260 65.4 258.1 64.7 256.5 65.5 C 254.9 66.3 254.2 68.2 255 69.8 L 270.2 100.9 C 267.8 101.4 265.2 101.2 262.8 100.2 C 259.1 98.8 256.1 95.9 254.3 92.2 L 245.6 74.4 C 244.8 72.8 242.9 72.1 241.3 72.9 C 239.7 73.7 239 75.6 239.8 77.2 L 248.4 95.1 Z" fill="#25263D"/><path d=" M 173.4 128 C 168.2 124.8 161.3 126.3 158.1 131.5 C 156.5 134 156 137 156.7 139.9 C 157.4 142.8 159.1 145.2 161.6 146.8 C 163.4 147.9 165.4 148.5 167.5 148.5 C 171.2 148.5 174.8 146.7 176.9 143.3 C 180.1 138.1 178.5 131.2 173.4 128 Z M 165 141.3 C 164 140.6 163.2 139.6 162.9 138.4 C 162.6 137.2 162.8 136 163.5 134.9 C 164.2 133.9 165.2 133.1 166.4 132.8 C 166.7 132.7 167.1 132.7 167.4 132.7 C 168.3 132.7 169.1 132.9 169.8 133.4 C 170.8 134.1 171.6 135.1 171.9 136.3 C 172.2 137.5 172 138.7 171.3 139.8 C 170 142 167.2 142.6 165 141.3 Z" fill="#25263D"/><path d=" M 252.4 342.7 C 249.7 341 246.4 340.9 243.7 342.1 L 180.7 335.4 C 179.2 335.2 177.8 336.1 177.3 337.5 C 176.4 340 174.4 342 172 343 C 170.9 343.5 170.1 344.5 170 345.7 C 169.7 348.9 167.9 351.7 165.1 353.2 C 164.4 353.6 163.8 354.3 163.5 355.1 C 163 356.6 162.3 357.9 161.3 358.9 C 160.3 360 160.1 361.6 160.9 362.9 L 196.1 419 C 196.1 419.5 196 420 196.1 420.4 C 196.7 422.8 198.1 424.9 200.2 426.2 C 201.7 427.1 203.4 427.6 205.1 427.6 C 205.8 427.6 206.5 427.5 207.2 427.4 C 209.6 426.8 211.7 425.4 213 423.3 C 213 423.3 213 423.3 213 423.3 L 255.3 355.6 C 256.6 353.5 257 351 256.5 348.6 C 256 346.1 254.5 344 252.4 342.7 Z M 203.7 420.7 C 203.1 420.3 202.6 419.7 202.4 418.9 C 202.2 418.2 202.4 417.4 202.8 416.8 L 245.1 349.1 C 245.5 348.5 246.1 348 246.9 347.8 C 247.1 347.7 247.3 347.7 247.5 347.7 C 248 347.7 248.5 347.8 249 348.1 C 249.6 348.5 250.1 349.1 250.3 349.9 C 250.5 350.6 250.3 351.4 249.9 352 L 207.6 419.7 C 207.2 420.3 206.6 420.8 205.8 421 C 205.1 421.2 204.3 421.1 203.7 420.7 Z M 181.9 376 C 182.6 375 183.6 374.2 184.8 373.9 C 185.1 373.8 185.5 373.8 185.8 373.8 C 186.7 373.8 187.5 374 188.2 374.5 C 190.4 375.9 191 378.7 189.7 380.9 C 189 381.9 188 382.7 186.8 383 C 185.6 383.3 184.4 383.1 183.3 382.4 C 182.3 381.7 181.5 380.7 181.2 379.5 C 181 378.3 181.2 377 181.9 376 Z M 185.2 389.4 C 185.4 389.4 185.6 389.5 185.8 389.5 C 186.6 389.5 187.5 389.4 188.3 389.2 C 191.2 388.5 193.6 386.8 195.2 384.3 C 198.4 379.1 196.8 372.2 191.7 369 C 186.5 365.7 179.6 367.3 176.4 372.5 C 176.1 373 175.8 373.6 175.6 374.1 L 167.6 361.3 C 168.3 360.3 168.8 359.3 169.3 358.1 C 172.9 355.8 175.4 352.2 176.2 348 C 178.8 346.6 180.9 344.5 182.3 341.9 L 238.1 347.9 L 198.7 410.9 L 185.2 389.4 Z" fill="#25263D"/><path d=" M 210.4 368.7 C 212.2 369.8 214.2 370.4 216.3 370.4 C 217.1 370.4 218 370.3 218.8 370.1 C 221.7 369.4 224.1 367.7 225.7 365.2 C 227.3 362.7 227.8 359.7 227.1 356.8 C 226.4 353.9 224.7 351.5 222.2 349.9 C 217 346.6 210.1 348.2 206.9 353.4 C 203.7 358.6 205.2 365.4 210.4 368.7 Z M 215.3 354.8 C 215.6 354.7 216 354.7 216.3 354.7 C 217.2 354.7 218 354.9 218.7 355.4 C 220.9 356.8 221.5 359.6 220.2 361.8 C 219.5 362.8 218.5 363.6 217.3 363.9 C 216.1 364.2 214.9 364 213.8 363.3 C 212.8 362.6 212 361.6 211.7 360.4 C 211.4 359.2 211.6 358 212.3 356.9 C 213 355.8 214.1 355 215.3 354.8 Z" fill="#25263D"/><ellipse cx="125.4" cy="334.5" rx="2" ry="2" fill="#25263D" transform="matrix(0.9956,-0.0935564,0.0935564,0.9956,-30.7474,13.2033)"/><ellipse cx="137.7" cy="343.1" rx="2" ry="2" fill="#25263D" transform="matrix(0.2233,-0.9747,0.9747,0.2233,-227.523,400.713)"/><ellipse cx="151.6" cy="328.9" rx="2" ry="2" fill="#25263D" transform="matrix(0.9956,-0.0935564,0.0935564,0.9956,-30.1032,15.6264)"/><ellipse cx="202.1" cy="202.5" rx="2" ry="2" fill="#25263D" transform="matrix(0.9956,-0.0935564,0.0935564,0.9956,-18.0631,19.8004)"/><ellipse cx="111.3" cy="145.2" rx="2" ry="2" fill="#25263D" transform="matrix(0.9956,-0.0935564,0.0935564,0.9956,-13.0992,11.0453)"/><ellipse cx="172.4" cy="231.8" rx="2" ry="2" fill="#25263D" transform="matrix(0.9956,-0.093547,0.093547,0.9956,-20.93,17.1459)"/><ellipse cx="81.1" cy="355.1" rx="2" ry="2" fill="#25263D" transform="matrix(0.9956,-0.0935564,0.0935564,0.9956,-32.8689,9.1439)"/><ellipse cx="171.7" cy="218.7" rx="2" ry="2" fill="#25263D" transform="matrix(0.9956,-0.0935564,0.0935564,0.9956,-19.7079,17.0206)"/><ellipse cx="131" cy="163" rx="2" ry="2" fill="#25263D" transform="matrix(0.9956,-0.093547,0.093547,0.9956,-14.675,12.9695)"/></g></svg>