<?xml version="1.0" encoding="utf-8"?>
<!-- Generator: Adobe Illustrator 19.1.0, SVG Export Plug-In . SVG Version: 6.00 Build 0)  -->
<svg version="1.1" id="Layer_1" xmlns="http://www.w3.org/2000/svg" xmlns:xlink="http://www.w3.org/1999/xlink" x="0px" y="0px"
	 viewBox="-232 368.9 145.1 57.1" style="enable-background:new -232 368.9 145.1 57.1;" xml:space="preserve">
<style type="text/css">
	.st0{fill:#FFFFFF;}
</style>
<g id="XMLID_2368_">
	<path id="XMLID_2385_" class="st0" d="M-220.7,372.5c-1.2-1.9-4.2-1.9-4.9-1.9l-0.6,0.9l-1.4,0.1l-0.1,0.2
		c-3.4,10.5-3.7,16.7-3.8,20.6c-0.3,6.3,0.7,12.7,1.4,13.6c0.3,0.3,0.6,0.4,0.7,0.3c0.7,0,0.9-1,1.1-1.5c0.1-0.2,0.1-0.5,0.2-1.3
		c0.2-2.5,1-8.9,4-19.4C-221.8,376.6-220,373.5-220.7,372.5z"/>
	<path id="XMLID_2382_" class="st0" d="M-157.7,390.1c-0.9-0.8-2.2-1.3-3.5-1.2c-0.7,0-1.4,0.1-2.1,0.4c0-0.1,0.2-0.6,0.2-0.6
		l-1.2-0.4c0,0-0.2,0.2-0.4,0.5c0.2-0.4,0.4-0.8,0.4-0.8c-0.3-0.2-2.6-0.7-3.7,0.2c-1.1,0.8-2.9,4.4-3.3,7.1c-0.6,4-0.6,6.8,0.3,8.1
		c0.6,0.9,1.5,1.4,2.6,1.6c0.2,0,0.4,0,0.6,0l0,0c3.8,0,8.4-5.1,9.6-6.9C-156.2,395-155.9,391.7-157.7,390.1z M-167.9,397.9
		c0.1-1.1,0.2-1.3,0.2-1.3c0.1,0.2,0.3,0.2,0.5,0.3c0.7,0.1,1.3-0.4,1.9-1c2-2.3,3.7-3.2,4.6-3.2c0.2,0,0.3,0,0.4,0.1
		c0.1,0.4-0.5,2.2-1.8,3.7c-1,1.2-2.9,3.3-4.3,3.8C-167.3,400.5-168.2,400.1-167.9,397.9z"/>
	<path id="XMLID_2378_" class="st0" d="M-128.7,386.5c3-2.8,5.1-4.9,6.2-7c1.3-2.3,1.6-3.8,1.2-5.1c-0.5-1.4-1.8-2.1-3.1-2.1
		c-0.3,0-0.7,0-1,0.1c-2.2,0.5-4.2,1.9-7.4,6.8c-1.6,2.4-3,5.4-4,8.7c-1.4,0.9-7.4,3.5-8.1,3.9c-1.1-1.2-2.7-2.6-3.5-3.4
		c-2-1.8-2.7-3-2.7-4.4c0-1.8,1.5-4,3.8-5.4c2.5-1.5,7.1-2.1,7.7-1.9c-0.5,1-2,2.4-3,3c-1.1,0.7-2.9,1.1-3.5,1.2
		c-0.2-0.5-0.7-0.2-0.9-0.1c-0.5,0.3-0.6,2-0.6,2.6c0,1.1,0.6,3.3,2,4c0.5,0.3,1,0.4,1.6,0.4c1.2,0,2.5-0.5,3.9-1.8
		c3-2.7,4.6-5.8,5-7.3c0.1-0.4,0.2-2.6-0.6-3.7c-0.6-0.8-1.6-1.7-3.8-2.1c-2.4-0.5-5.7-0.9-9.9,0.5c-4,1.3-7.6,3.7-9.1,6.9
		c-2.2,4.8,2,8.4,9.7,13.7c-1.3,0.8-2.2,1.3-2.9,1.8c-4.4,3.1-7.5,6.1-7.7,9c-0.2,2.7,1.2,5.2,3.8,5.6c0.4,0.1,0.8,0.1,1.2,0.1
		c3.3,0,8.9-3.5,11.3-6.8c1.5-2.1,2-4.3,1.4-6.2c-0.2-0.6-0.5-1.3-0.8-1.9c1-0.7,3.6-2,4.2-2.2c-2,6.6-2,9.8,0,13.3
		c0.1,0.2,0.8,0.6,1,0.8l-0.3-1.4c0,0.1,0.6,1.7,0.7,1.9l1.3,0.9c0,0-0.8-2.9-0.8-6.5c0-3.4,0.9-6.4,3.2-12.2
		C-130.9,388.4-129.8,387.4-128.7,386.5z M-124.9,376.2c-0.9,1.9-3.5,5.4-5.6,7.1c-0.1,0.1-0.3,0.2-0.4,0.3
		C-128.3,379.1-126.1,377-124.9,376.2z M-150.3,401.2c0.3-0.2,1-0.8,1.1-0.9c0.2-0.1,0.8-0.6,3.2-2.4c0,0.1,0.1,0.2,0.1,0.3
		c0.4,1.4-0.4,2.7-1.9,3.7c-1,0.6-2.1,1-2.8,1c-0.2,0-0.5,0-0.7-0.2C-151.5,402.3-151.4,402.2-150.3,401.2z"/>
	<path id="XMLID_2374_" class="st0" d="M-172.8,388.7c-0.5-0.6-1.5-0.6-1.9-0.6c-0.4,0-0.8,0.1-0.8,0.1s-0.3,0.5-0.4,0.6
		c-0.2-0.2-0.7-0.9-1.4-1c-0.5,0-1.2,0.2-1.8,0.6c-1.2,0.7-2.1,2.3-4,4.3c-0.7,0.7-1.4,1.5-2.1,2.3c-1.2,1.3-2.7,2.5-3.2,3
		c-0.2,0.2-0.4,0.3-0.5,0.4c0.1-0.8,0.2-2.6,1.1-4.6c1.3-3,1.2-4,1.2-4s-3.3-2.2-4.6,0.8c-0.1,0.2-0.1,0.3-0.2,0.5
		c0,0.2-0.1,0.4-0.2,0.6c-0.6,1.2-1.6,2.8-2.3,3.8c-2.2,3-3.6,4.8-4.2,5c-0.1-0.6,0.3-2.7,0.6-4.6c0.4-0.7,2.9-5.3,4.4-10
		c5.6-17.8-2.4-13.8-4.8-6.2c-1,3.3-1.8,7.6-2,8.7c-0.2-0.1-1.1-0.9-2.3-0.5s-2.3,1.7-3.4,3.2c-0.7,1.1-1.3,2.4-1.5,2.6
		c-0.9,1-3.6,3.8-5.3,5.4c0.5-1.3,1-3.4,1.9-6.1c0.7-2,0.7-3.1,0.6-4.2c-0.1-0.8-0.8-2.2-2.5-2.2c-1.7,0-3.8,1.5-5.9,3.5
		c0,0,0.7-1.9,0-2.2c-0.7-0.3-2.5-0.1-4.2,0.9l-0.2,0.6l-0.7,0.3c0,0-1.7,5.8-2.4,10.9c-0.2,1.4,0,2.7,0.6,3.4c0.7,0.8,2.7,1,2.7,1
		s1-4.8,2.7-7.4c2-3.1,4.1-4.8,6.4-6c-1,2.5-4.5,11.6-2.9,13c0.3,0.3,0.7,0.4,1.2,0.4c1.1,0,2.1-0.8,2.7-1.2c0.8-0.5,3-2.4,4.3-3.5
		c0,1,0.2,2.1,1.1,2.7c0.3,0.2,0.6,0.3,1,0.3c1.5,0,3.5-1.2,5.1-2.8c0,2.9,1.4,4.4,2.5,4.4c3,0,5.1-3.8,5.9-4.8c0,0.2,0,0.8,0.1,1
		c0.4,1.7,1.3,2.1,2.1,2.1c2,0,4.8-2.4,5.3-2.7c0,0.9,0.2,2,1,2.5c0.2,0.2,0.5,0.2,0.9,0.2c1.2,0,2.8-1,3.9-1.9
		c0.6-0.5,1.1-1,1.6-1.5c-0.4,3.4-1,7.6-2.5,15.4c-0.3,1.7-0.9,4.6-2.4,4.3l0,0c-1.4,0-3.5-2.7-5.6-4.8c-3.4-3.5-6.1-6-11.1-8.2
		c-1.2-0.5-4.3-1.3-6.5-1.1c-4,0.3-5.7,0.8-6.3,2.5c0,0-0.7,0-0.9,1.4c-0.2,1.7,0.4,4.5,1,6.1c0.5,1.5,1.4,1.9,2.1,2.1
		c0.4,0.1,0.7,0,1-0.3c0.3-0.3,0.4-0.7,0.4-1.1c0-0.6-0.3-0.9-0.5-1c-0.1-1,1.4-2,3.7-2.1c3.8-0.1,8.6,1.8,11.2,3.5
		c3.1,2.1,7.1,5.6,8.3,6.6c1.7,1.5,4.2,2.8,5.9,2c3.6-1.6,4-8.4,5.3-17c0.8-5.4,1.2-8.8,1.4-10.9c0.3-2.9,0.5-4.6,0.6-5.1
		C-172.3,390.9-172,389.6-172.8,388.7z M-176.8,391.6c-0.1,0.2-0.3,0.7-0.4,0.9c-0.1,0.3-0.9,1.6-2.5,3.4c-0.9,1-1.7,1.8-2.3,2.4
		c0.3-0.9,0.8-2.1,1.9-3.5C-179,393.3-177.6,392.1-176.8,391.6z M-200.2,391.6l-0.2,2.5c-0.3,0.5-2.4,2.9-4,3.7
		c0.2-0.4,0.8-2.2,1.7-3.6C-201.9,393-200.8,391.9-200.2,391.6z"/>
	<path id="XMLID_2373_" class="st0" d="M-187.2,387.8c0.9,0.1,2-0.4,2.5-1.9c0.4-1.4,0.6-2.3,2.1-4.1c0.6-0.7,1.5-1.4,1.5-1.4
		s-1.7,0.2-2.3,0.5c-0.1-0.2-0.3-0.4-0.3-0.4s-2.3,0.1-4.2,2.4c-1.1,1.3-1.3,2.6-1,3.5C-188.6,386.9-188,387.7-187.2,387.8z"/>
	<path id="XMLID_2369_" class="st0" d="M-87.7,395.6c0,0,0.1-0.2,0.1-0.5c0-0.3-0.2-0.5-0.3-0.7c0,0-3.2-3.5-4.1-3.8
		c-0.9-0.3-1.5,0.1-1.8,0.5c-0.2,0.2-0.3,0.6-0.3,0.8s0.1,0.5,0.3,0.7c0.3,0.3,0.7,0.1,0.7,0.1c0.5,0.3-0.5,7.6-7,9
		c-4,0.8-6.5-2.3-7.1-3.3c0,0,1.8-1.8,3-3.2c4.1-4.9,2.7-8.6,1.3-9.7c-1-0.8-3.3-1.4-5.5,0.6c-1.3,1.2-2.4,3-3,6.2
		c-0.3,1.4-0.3,2.8-0.2,4.2c-1.2,1-2.5,1.8-3,2c0,0,0,0-0.1,0c-0.1-0.6,0.1-2.6,0.2-3c0.6-4.1,1.1-6.2,2.4-10.5
		c9-5,14.5-2.9,14.5-2.9c0.2-0.9,0.2-2.3-1.3-4.1c-1.5-1.9-7.5-0.3-11.6,1.7c0.1-0.3,0.2-0.6,0.3-0.9c0.6-2.1,0.9-3.2,0.8-3.6
		c-0.1-0.5-0.8-1.5-1.9-1.9c-0.1,0.2-0.1,0.4-0.1,0.4l-0.8-0.3c0,0-0.5,1.4-2.6,8.1c-0.9,0.5-2.9,1.8-3.5,2.1
		c-1.8,1.2-2.3,1.4-2.6,2.1c-0.2,0.5,0,1.6,0.4,2.1c0.5,0.7,1.6,1.5,2.4,0.8c0.3-0.3,0.9-0.7,1.3-1c-0.5,1.7-1.7,5.1-2.3,6.4
		c-1.3,2.7-2.4,3.6-3.2,4c0.1-0.7,0.4-2,0.7-3.5c0.1-0.5,0.2-0.9,0.3-1.3c0.1-0.2,0.1-0.4,0.2-0.6c0.5-1.9,0.6-2.8-0.2-3.5
		c-0.2-0.2-1.9-1.4-1.9-1.4s-0.3,0.4-0.6,0.7c0,0-0.9-0.5-1.6-0.5c-1.7,0.2-3.5,1.9-5.2,3.6c-1.3,1.3-4,5.4-3.5,9.1
		c0.3,1.9,1.8,2.8,3,2.8c0.2,0,0.4,0,0.6-0.1c2-0.4,4.2-2.4,4.4-2.7l0.1-0.1c0.4,2.6,1.7,2.9,2,2.9c1.4,0,3.8-2.3,4.4-2.9
		c0.2,1.4,1.1,3.2,2,3.9c0.7,0.5,1.2,0.6,1.6,0.6c1.3,0,3.4-1.4,5.8-4c0.4,0.8,3.3,3.8,7.6,4.3l0,0c5.7,0.8,10.4-2.5,12.5-4.9
		C-88.2,398.7-86.8,396.8-87.7,395.6z M-125.8,393.5c-0.7,1.5-1.8,3-2.6,3.9c-0.7,0.8-1.1,1.1-1.4,1.1c-0.1,0-0.1,0-0.2,0l0,0
		c-0.1-0.2,0-1.7,1.8-4.1c1-1.3,2.4-2.4,3.3-2.8C-125,391.9-125.7,393.3-125.8,393.5z M-104.8,387.9c-0.4,1.5-1,2.8-2.2,4.6
		c-0.4,0.5-0.9,1.2-1.6,2C-107.6,390.4-105.9,388.5-104.8,387.9z"/>
</g>
</svg>
